<svg xmlns="http://www.w3.org/2000/svg" width="334.46" height="334.35" viewBox="0 0 334.46 334.35"><path d="M331.82,155.66a24.91,24.91,0,0,1,2.62,11.63,25.58,25.58,0,0,1-3.94,12.43,47.68,47.68,0,0,1-7.28,9.17Q309.06,203,294.89,217.2a2.31,2.31,0,0,0-.77,1.81c.05,5-.07,9.92.07,14.87.25,8.87.25,17.75.09,26.62-.11,6.17-1,12.26-3.8,17.91-3.29,6.75-8.71,10.87-15.86,12.86a40.26,40.26,0,0,1-9.5,1.47c-12,.4-24,.07-36,.17q-4.42,0-8.85,0a2.4,2.4,0,0,0-1.9.79q-15,15-29.94,29.94a42.28,42.28,0,0,1-10.92,8,23.61,23.61,0,0,1-8.08,2.5c-.13,0-.24.12-.36.19H164.3c-1.13-.24-2.28-.42-3.41-.71a36.58,36.58,0,0,1-13.47-7.15,82.74,82.74,0,0,1-7.81-7.16q-12.66-12.79-25.31-25.58a2.66,2.66,0,0,0-2.1-.85c-13.42,0-26.84.08-40.26,0-5.76-.05-11.45-.82-16.76-3.32a23.6,23.6,0,0,1-12.4-13.88,43.8,43.8,0,0,1-2.5-13c-.45-9.29-.17-18.58-.11-27.86,0-4.71,0-9.43.13-14.14a1.82,1.82,0,0,0-.55-1.48c-4.09-4-8.12-8.16-12.26-12.16-5.39-5.2-10.74-10.45-15.92-15.85-4.59-4.77-8.5-10.05-10.5-16.5a22.91,22.91,0,0,1,1.06-16.58,40,40,0,0,1,8.37-11.93q14.46-14.52,29-29a2.54,2.54,0,0,0,.83-2c0-4.86.08-9.71-.06-14.56-.26-9-.25-17.89-.1-26.83a42.31,42.31,0,0,1,3.67-17.63,23.5,23.5,0,0,1,14.32-12.6,37.78,37.78,0,0,1,11.08-2c14.94-.43,29.88-.08,44.83-.17a2.68,2.68,0,0,0,2.08-.87c10.36-10.38,20.69-20.8,31.16-31.07A33.71,33.71,0,0,1,161.35,1a23.39,23.39,0,0,1,16.4,1.21,43.5,43.5,0,0,1,11.95,8c5.94,5.38,11.44,11.21,17.05,16.92,4.55,4.62,9.15,9.18,13.68,13.83a2,2,0,0,0,1.58.56c13.56,0,27.12-.07,40.68,0a39,39,0,0,1,16.55,3.31,23.63,23.63,0,0,1,12.43,14,44.55,44.55,0,0,1,2.48,13.09c.45,9.07.18,18.16.11,27.23,0,4.82,0,9.64-.13,14.45a2.17,2.17,0,0,0,.69,1.74c3.78,3.72,7.48,7.52,11.3,11.2q8.5,8.21,16.74,16.65A47.61,47.61,0,0,1,331.82,155.66Zm-5,21.05c3.07-5.53,3.86-11.23,1.5-17.25a39.23,39.23,0,0,0-8.85-13.07c-6.67-6.82-13.47-13.5-20.23-20.22-1.62-1.61-3.3-3.17-5.11-4.9-.34,30.11-.37,60,0,90,.4,0,.54-.32.72-.5,8.3-8.29,16.61-16.55,24.86-24.88A42.15,42.15,0,0,0,326.86,176.71ZM289.75,257.2c.1-2.56-.11-5.12-.13-7.68-.06-8.5,0-17-.06-25.49a1.89,1.89,0,0,0-.15-1.15,2.43,2.43,0,0,0-.94.76q-6.81,6.81-13.61,13.61a2.31,2.31,0,1,1-3.34-3.16q8.49-8.51,17-17a2.73,2.73,0,0,0,.88-2.18q0-47.13,0-94.26a11.43,11.43,0,0,1,.11-1.65,4,4,0,0,0-1.25-3.79c-4.22-4-8.28-8.09-12.39-12.17Q247.79,75.16,220,47a2.5,2.5,0,0,0-2-.84c-6.17,0-12.35,0-18.52,0-1.52,0-3.05,0-4.58,0a2.43,2.43,0,0,1-2.23-1.45,2.1,2.1,0,0,1,.29-2.25,2.79,2.79,0,0,1,2.48-1c5.86,0,11.72,0,17.58,0a2,2,0,0,0,1.11-.1c-.07-.4-.4-.57-.63-.81-1.74-1.83-3.53-3.62-5.3-5.43-6.82-6.91-13.65-13.81-20.59-20.6a39.86,39.86,0,0,0-11.37-7.92,19,19,0,0,0-16.73.07,41.2,41.2,0,0,0-11.36,8.45c-8.53,8.44-17,16.95-25.47,25.44-.2.21-.61.39-.49.72s.55.18.84.18c5.13,0,10.27,0,15.4,0a4.92,4.92,0,0,1,1.43.17,2.34,2.34,0,0,1,1.72,2,2.21,2.21,0,0,1-1.16,2.17,3,3,0,0,1-1.8.38c-6.86,0-13.73,0-20.6,0a2.2,2.2,0,0,0-1.72.72c-1.79,1.84-3.62,3.64-5.44,5.45-3.18,3.19-6.38,6.37-9.56,9.57a2.26,2.26,0,0,1-2.21.84,2.41,2.41,0,0,1-1.82-1.67,2.15,2.15,0,0,1,.7-2.34q5.8-5.81,11.62-11.63c.25-.25.63-.42.66-.87a2.19,2.19,0,0,0-.31-.05c-13.94.12-27.88-.3-41.81.22a28.07,28.07,0,0,0-11.3,2.77c-6.12,3-9.16,8.2-10.7,14.53a65.43,65.43,0,0,0-1.43,15c0,2.15.14,4.29.14,6.44q0,12.58.06,25.17c0,.36-.13.75.16,1.13a2.33,2.33,0,0,0,.87-.71L58.34,98.34a2.36,2.36,0,0,1,2.5-.84,2.28,2.28,0,0,1,.85,4q-7.84,7.88-15.75,15.73a2.89,2.89,0,0,0-.92,2.27q0,46.92,0,93.83a12.91,12.91,0,0,1-.12,1.86,4.16,4.16,0,0,0,1.37,4.05c2.86,2.57,5.54,5.33,8.27,8.05C74.48,247.16,94.47,267,114.2,287.08a3.39,3.39,0,0,0,2.72,1.11c4.71-.06,9.43,0,14.15,0h7.69a2.35,2.35,0,0,1,2.22,1.29,2.22,2.22,0,0,1-.22,2.45,2.91,2.91,0,0,1-2.6,1H121.41c-.36,0-.73,0-1.09,0,0,.37.27.49.43.66,2.78,2.86,5.61,5.66,8.39,8.52,5.22,5.37,10.55,10.63,15.84,15.93a51.4,51.4,0,0,0,10.76,8.44c5.5,3.14,11.25,4.18,17.35,2a30.66,30.66,0,0,0,11-7.15c9.31-9.18,18.52-18.45,27.77-27.69.17-.18.49-.31.35-.72H194.42a5.69,5.69,0,0,1-1.54-.17,2.29,2.29,0,0,1-1.49-3.21,2.44,2.44,0,0,1,2.47-1.37c7.42,0,14.84,0,22.26,0a2.51,2.51,0,0,0,2-.81Q225,280.43,232,273.53a7.52,7.52,0,0,1,1.26-1.07,2.22,2.22,0,0,1,2.46,0,2.31,2.31,0,0,1,.25,3.73l-11,11c-.25.26-.6.45-.7.85.26.2.54.1.8.11h37.77a40.46,40.46,0,0,0,10.15-1.28,19.76,19.76,0,0,0,11.61-7.5,26.22,26.22,0,0,0,4-9.72A70.42,70.42,0,0,0,289.75,257.2Zm0-175.93c.07-2.25,0-4.5-.11-6.75a50.66,50.66,0,0,0-1.74-12.38C286.2,56.33,283,51.7,277.37,49.06a32.18,32.18,0,0,0-13.5-2.83c-12.45-.1-24.9,0-37.35,0-.21,0-.48-.11-.68.15C246.76,67.75,268,88.88,289.5,110c0-.49.06-.73.06-1C289.65,99.77,289.44,90.52,289.74,81.27ZM107.81,288.16c.26,0,.54.1.82-.12-20.95-21.44-42.15-42.56-63.7-63.69,0,.55,0,.82-.06,1.09-.09,9.18.12,18.36-.18,27.55a94.71,94.71,0,0,0,.36,10.78,38.44,38.44,0,0,0,2.38,11,18.62,18.62,0,0,0,9.83,10.61,32.82,32.82,0,0,0,13.52,2.75C83.12,288.21,95.47,288.17,107.81,288.16Zm-67.54-75.3c.34-29.9.36-59.8,0-89.9l-.63.57c-8.33,8.34-16.69,16.66-25,25a44.67,44.67,0,0,0-6.16,7.55A22.32,22.32,0,0,0,4.7,167.27,20.18,20.18,0,0,0,7,177a42.22,42.22,0,0,0,8.3,11.35c8.07,8.11,16.23,16.13,24.35,24.18C39.79,212.67,39.9,213,40.27,212.86Z" fill="#7ed3f7"/><path d="M328.36,159.46c2.36,6,1.57,11.72-1.5,17.25a42.15,42.15,0,0,1-7.12,9.14c-8.25,8.33-16.56,16.59-24.86,24.88-.18.18-.32.45-.72.5-.36-29.93-.33-59.85,0-90,1.81,1.73,3.49,3.29,5.11,4.9,6.76,6.72,13.56,13.4,20.23,20.22A39.23,39.23,0,0,1,328.36,159.46Z" fill="#bde6fa"/><path d="M289.62,249.52c0,2.56.23,5.12.13,7.68a70.42,70.42,0,0,1-1.21,12.46,26.22,26.22,0,0,1-4,9.72,19.76,19.76,0,0,1-11.61,7.5,40.46,40.46,0,0,1-10.15,1.28H225c-.26,0-.54.09-.8-.11.1-.4.45-.59.7-.85l11-11a2.31,2.31,0,0,0-.25-3.73,2.22,2.22,0,0,0-2.46,0,7.52,7.52,0,0,0-1.26,1.07q-6.93,6.92-13.82,13.84a2.51,2.51,0,0,1-2,.81c-7.42,0-14.84,0-22.26,0a2.44,2.44,0,0,0-2.47,1.37,2.29,2.29,0,0,0,1.49,3.21,5.69,5.69,0,0,0,1.54.17h17.77c.14.41-.18.54-.35.72-9.25,9.24-18.46,18.51-27.77,27.69a30.66,30.66,0,0,1-11,7.15c-6.1,2.22-11.85,1.18-17.35-2A51.4,51.4,0,0,1,145,318.07c-5.29-5.3-10.62-10.56-15.84-15.93-2.78-2.86-5.61-5.66-8.39-8.52-.16-.17-.4-.29-.43-.66.36,0,.73,0,1.09,0h16.75a2.91,2.91,0,0,0,2.6-1,2.22,2.22,0,0,0,.22-2.45,2.35,2.35,0,0,0-2.22-1.29h-7.69c-4.72,0-9.44,0-14.15,0a3.39,3.39,0,0,1-2.72-1.11C94.47,267,74.48,247.16,54.56,227.27c-2.73-2.72-5.41-5.48-8.27-8.05a4.16,4.16,0,0,1-1.37-4.05,12.91,12.91,0,0,0,.12-1.86q0-46.92,0-93.83a2.89,2.89,0,0,1,.92-2.27q7.92-7.83,15.75-15.73a2.28,2.28,0,0,0-.85-4,2.36,2.36,0,0,0-2.5.84L45.91,110.77a2.33,2.33,0,0,1-.87.71c-.29-.38-.16-.77-.16-1.13q0-12.59-.06-25.17c0-2.15-.15-4.29-.14-6.44a65.43,65.43,0,0,1,1.43-15c1.54-6.33,4.58-11.57,10.7-14.53a28.07,28.07,0,0,1,11.3-2.77c13.93-.52,27.87-.1,41.81-.22a2.19,2.19,0,0,1,.31.05c0,.45-.41.62-.66.87Q103.77,52.95,98,58.74a2.15,2.15,0,0,0-.7,2.34,2.41,2.41,0,0,0,1.82,1.67,2.26,2.26,0,0,0,2.21-.84c3.18-3.2,6.38-6.38,9.56-9.57,1.82-1.81,3.65-3.61,5.44-5.45a2.2,2.2,0,0,1,1.72-.72c6.87,0,13.74,0,20.6,0a3,3,0,0,0,1.8-.38,2.21,2.21,0,0,0,1.16-2.17,2.34,2.34,0,0,0-1.72-2,4.92,4.92,0,0,0-1.43-.17c-5.13,0-10.27,0-15.4,0-.29,0-.71.16-.84-.18s.29-.51.49-.72c8.48-8.49,16.94-17,25.47-25.44a41.2,41.2,0,0,1,11.36-8.45,19,19,0,0,1,16.73-.07,39.86,39.86,0,0,1,11.37,7.92c6.94,6.79,13.77,13.69,20.59,20.6,1.77,1.81,3.56,3.6,5.3,5.43.23.24.56.41.63.81a2,2,0,0,1-1.11.1c-5.86,0-11.72,0-17.58,0a2.79,2.79,0,0,0-2.48,1,2.1,2.1,0,0,0-.29,2.25,2.43,2.43,0,0,0,2.23,1.45c1.53,0,3.06,0,4.58,0,6.17,0,12.35,0,18.52,0a2.5,2.5,0,0,1,2,.84q27.76,28.2,55.9,56.05c4.11,4.08,8.17,8.21,12.39,12.17a4,4,0,0,1,1.25,3.79,11.43,11.43,0,0,0-.11,1.65q0,47.13,0,94.26a2.73,2.73,0,0,1-.88,2.18q-8.53,8.46-17,17a2.31,2.31,0,1,0,3.34,3.16q6.79-6.81,13.61-13.61a2.43,2.43,0,0,1,.94-.76,1.89,1.89,0,0,1,.15,1.15C289.58,232.53,289.56,241,289.62,249.52ZM260.44,148.59a21.33,21.33,0,0,0,1.28-10.08A30.15,30.15,0,0,0,258,126a1.62,1.62,0,0,0-1.62-1q-16.38,0-32.77,0c-10.75,0-21.5,0-32.25,0a3.4,3.4,0,0,0-3,1.49,21,21,0,0,0-4.4,10.91A25.64,25.64,0,0,0,188,154.64a1.56,1.56,0,0,0,1.52.81c4.33,0,8.66,0,13,0,1.34,0,1.34,0,1.34,1.35q0,20.6,0,41.19A10.15,10.15,0,0,0,208,206.3a21.29,21.29,0,0,0,12.35,4.24,40.23,40.23,0,0,0,8-.41,28.23,28.23,0,0,0,13-5.16,1.44,1.44,0,0,0,.67-1.29q0-22.1,0-44.2c0-.69-.15-1-.91-1-2.49,0-5-.09-7.48-.17a6.71,6.71,0,0,1-2.82-.6,1.46,1.46,0,0,1-.78-1.65c.11-.84.75-.64,1.27-.64h17.27a19.63,19.63,0,0,0,3.42-.2A10.7,10.7,0,0,0,260.44,148.59ZM142.69,208.91c4.91-1.76,7.3-4.59,7.28-10.16-.08-20.24,0-40.49,0-60.74,0-6.23-3.14-10.59-9.05-12.61a32.37,32.37,0,0,0-17.29-.87,26.43,26.43,0,0,0-10.07,4.26,2.42,2.42,0,0,0-1,2,7.62,7.62,0,0,0,1.43,4.75c2.29,3.88,4.51,7.79,6.75,11.7a3.73,3.73,0,0,1,.59,2.07,1.62,1.62,0,0,1-1.36,1.5c-.72.21-.82-.47-1.09-.87s-.4-.65-.6-1c-3.7-6.05-7.35-12.14-11.17-18.12a13.44,13.44,0,0,0-9.45-6.23,37.27,37.27,0,0,0-8.95-.62,30.22,30.22,0,0,0-11.46,2.59c-3.39,1.6-4.67,3.18-4.64,6.82.1,10.44,0,20.88,0,31.31q0,16.19,0,32.35A11.72,11.72,0,0,0,74,203c2,3.48,5.27,5.21,8.94,6.28a35.64,35.64,0,0,0,13.25,1.09,30.23,30.23,0,0,0,13-4.22c.29-.18.76-.32.75-.67,0-1.39.4-2.83-.43-4.15-2.14-3.4-4.27-6.8-6.38-10.23a29.94,29.94,0,0,1-3-5.35,2.13,2.13,0,0,1,.45-2.57c.69-.62,1.15-.53,1.61.25,4.19,6.93,8.3,13.91,13,20.53a12.36,12.36,0,0,0,7.48,5.24,43.77,43.77,0,0,0,11.73,1.15A26.53,26.53,0,0,0,142.69,208.91Z" fill="#bde6fa"/><path d="M289.63,74.52c.08,2.25.18,4.5.11,6.75-.3,9.25-.09,18.5-.18,27.75,0,.24,0,.48-.06,1C268,88.88,246.76,67.75,225.84,46.34c.2-.26.47-.15.68-.15,12.45,0,24.9-.06,37.35,0a32.18,32.18,0,0,1,13.5,2.83c5.64,2.64,8.83,7.27,10.52,13.08A50.66,50.66,0,0,1,289.63,74.52Z" fill="#bde6fa"/><path d="M261.72,138.51a21.33,21.33,0,0,1-1.28,10.08,10.7,10.7,0,0,1-8.53,6.64,19.63,19.63,0,0,1-3.42.2H231.22c-.52,0-1.16-.2-1.27.64a1.46,1.46,0,0,0,.78,1.65,6.71,6.71,0,0,0,2.82.6c2.49.08,5,.16,7.48.17.76,0,.91.29.91,1q0,22.1,0,44.2a1.44,1.44,0,0,1-.67,1.29,28.23,28.23,0,0,1-13,5.16,40.23,40.23,0,0,1-8,.41A21.29,21.29,0,0,1,208,206.3a10.15,10.15,0,0,1-4.14-8.33q0-20.59,0-41.19c0-1.35,0-1.35-1.34-1.35-4.34,0-8.67,0-13,0a1.56,1.56,0,0,1-1.52-.81A25.64,25.64,0,0,1,184,137.41a21,21,0,0,1,4.4-10.91,3.4,3.4,0,0,1,3-1.49c10.75.07,21.5,0,32.25,0q16.38,0,32.77,0a1.62,1.62,0,0,1,1.62,1A30.15,30.15,0,0,1,261.72,138.51Z" fill="#4993cf"/><path d="M150,198.75c0,5.57-2.37,8.4-7.28,10.16a26.53,26.53,0,0,1-8.23,1.45,43.77,43.77,0,0,1-11.73-1.15,12.36,12.36,0,0,1-7.48-5.24c-4.69-6.62-8.8-13.6-13-20.53-.46-.78-.92-.87-1.61-.25a2.13,2.13,0,0,0-.45,2.57,29.94,29.94,0,0,0,3,5.35c2.11,3.43,4.24,6.83,6.38,10.23.83,1.32.38,2.76.43,4.15,0,.35-.46.49-.75.67a30.23,30.23,0,0,1-13,4.22A35.64,35.64,0,0,1,83,209.29C79.29,208.22,76,206.49,74,203a11.72,11.72,0,0,1-1.45-6q0-16.17,0-32.35c0-10.43.06-20.87,0-31.31,0-3.64,1.25-5.22,4.64-6.82A30.22,30.22,0,0,1,88.62,124a37.27,37.27,0,0,1,8.95.62,13.44,13.44,0,0,1,9.45,6.23c3.82,6,7.47,12.07,11.17,18.12.2.33.38.66.6,1s.37,1.08,1.09.87a1.62,1.62,0,0,0,1.36-1.5,3.73,3.73,0,0,0-.59-2.07c-2.24-3.91-4.46-7.82-6.75-11.7a7.62,7.62,0,0,1-1.43-4.75,2.42,2.42,0,0,1,1-2,26.43,26.43,0,0,1,10.07-4.26,32.37,32.37,0,0,1,17.29.87c5.91,2,9.05,6.38,9.05,12.61C149.94,158.26,149.89,178.51,150,198.75Z" fill="#4993cf"/><path d="M108.63,288c-.28.22-.56.12-.82.12-12.34,0-24.69,0-37,0a32.82,32.82,0,0,1-13.52-2.75,18.62,18.62,0,0,1-9.83-10.61,38.44,38.44,0,0,1-2.38-11A94.71,94.71,0,0,1,44.69,253c.3-9.19.09-18.37.18-27.55,0-.27,0-.54.06-1.09C66.48,245.48,87.68,266.6,108.63,288Z" fill="#bde6fa"/><path d="M40.27,123c.36,30.1.34,60,0,89.9-.37.14-.48-.19-.66-.36-8.12-8.05-16.28-16.07-24.35-24.18A42.22,42.22,0,0,1,7,177a20.18,20.18,0,0,1-2.26-9.7A22.32,22.32,0,0,1,8.49,156.1a44.67,44.67,0,0,1,6.16-7.55c8.3-8.36,16.66-16.68,25-25Z" fill="#bde6fa"/></svg>